<svg xmlns="http://www.w3.org/2000/svg" viewBox="0 0 256 256" role="img" aria-label="Bubble Burst crystal">
  <defs>
    <linearGradient id="a" x1="58" y1="210" x2="182" y2="38" gradientUnits="userSpaceOnUse">
      <stop stop-color="#337a9b"/>
      <stop offset=".55" stop-color="#9fd8f6"/>
      <stop offset="1" stop-color="#f3fbff"/>
    </linearGradient>
    <filter id="g" x="-35%" y="-35%" width="170%" height="170%">
      <feGaussianBlur stdDeviation="4" result="b"/>
      <feMerge><feMergeNode in="b"/><feMergeNode in="SourceGraphic"/></feMerge>
    </filter>
  </defs>
  <g fill="none" stroke="#dbf7ff" stroke-width="4" opacity=".8">
    <circle cx="67" cy="69" r="18"/>
    <circle cx="194" cy="77" r="14"/>
    <circle cx="205" cy="169" r="22"/>
    <circle cx="54" cy="178" r="12"/>
    <circle cx="101" cy="39" r="8"/>
    <circle cx="168" cy="211" r="9"/>
  </g>
  <g filter="url(#g)">
    <path d="M127 44c38 38 60 70 60 103 0 38-28 66-60 66s-60-28-60-66c0-33 22-65 60-103Z" fill="url(#a)" stroke="#eefcff" stroke-width="4" stroke-linejoin="round"/>
    <path d="M127 44v169M82 132c35-1 67-23 91-66M88 172c35-8 64 1 89 27" fill="none" stroke="#fff" stroke-width="3" opacity=".45"/>
    <path d="M93 126c5-27 19-49 41-68" fill="none" stroke="#fff" stroke-width="8" opacity=".55" stroke-linecap="round"/>
    <circle cx="103" cy="105" r="9" fill="#fff" opacity=".7"/>
  </g>
  <g fill="#9fd8f6" filter="url(#g)">
    <circle cx="78" cy="93" r="5"/>
    <circle cx="192" cy="127" r="5"/>
    <circle cx="49" cy="139" r="4"/>
  </g>
</svg>
